<svg xmlns="http://www.w3.org/2000/svg" width="9" height="16" viewBox="0 0 9 16">
  <g id="Iconly_Broken_Arrow---Right-2" data-name="Iconly/Broken/Arrow---Right-2" transform="translate(-7.5 -4)">
    <g id="Arrow---Right-2" transform="translate(7.5 4)">
      <path id="Path_44049" data-name="Path 44049" d="M.244,15.758a.814.814,0,0,1-.073-1.08l.075-.084L7.572,7.417a.846.846,0,0,1,1.183,0A.812.812,0,0,1,8.829,8.5l-.075.084L1.427,15.759A.847.847,0,0,1,.244,15.758Zm0-14.351a.814.814,0,0,1,0-1.164.847.847,0,0,1,1.1-.077l.086.073L6.293,5.005a.812.812,0,0,1,0,1.163.847.847,0,0,1-1.1.077l-.086-.073Z" fill="#3193bc"/>
    </g>
  </g>
</svg>
